<svg version="1.0" xmlns="http://www.w3.org/2000/svg" width="200" height="200" viewBox="0 0 150 150"><path d="M53 10.2c2.1.9 2.2 1.2.8 1.5-1 .3-1.8 1.1-1.8 2 0 1-.6 1.4-2 1-1.3-.3-2 0-2 .9 0 1.9-8 13.4-9.4 13.4-2.4 0-4 1.8-2.9 3.2.8 1-1.2 4.4-8.3 14.3-5.1 7.1-9.3 13.3-9.4 13.7 0 .5 1 .8 2.3.8 3.1 0 5 1.5 5.4 4.2 1 5.9 2 15.3 1.8 15.6-.2.2-2.8-.1-5.8-.8-6.6-1.3-14-1.6-18.5-.6l-3.2.8v50.7l2.8-.8c4.3-1.2 19.1-.5 26.2 1.3 3.6.9 10.1 2.8 14.5 4.1 8.1 2.4 18.5 4.5 22.1 4.5 1.1 0 3.7-1 5.9-2.1 4.8-2.6 10.7-4.7 14.9-5.4 4.7-.8 12.2-3.4 20.1-7 5.2-2.4 8.1-4.5 10.6-7.7 1.9-2.3 4.4-5.1 5.6-6.1 1.3-1 3.5-4 5-6.5 1.5-2.6 3.7-6.1 5-7.8 1.3-1.7 2.3-3.4 2.3-3.8 0-.4 1.9-2.7 4.3-4.9 4.5-4.4 5.3-8 3-12.2-2-3.6-10.9-2.6-15.3 1.6-5.4 5.1-5.3 5.2-4.5-6.1.8-11.6.9-12.2 3.3-11.9 5.3.5 5.1-.1-3.3-13.1-3.4-5.2-9.3-14.2-13-20-3.7-5.8-6.9-10.7-7.1-10.9-.3-.4-14.9-.9-28.7-1-5.3-.1-7.6-.5-7.5-1.3.2-.6-.8-1.5-2.2-1.9-2.5-.7-2.5-.7.4-.8 5.9-.2 1.3-1.5-6.2-1.7-6.3-.2-7.2-.1-5.2.8zm7 1.8c0 .5-.7.7-1.5.4-.8-.4-1.2-1-.9-1.5.6-1.1 2.4-.2 2.4 1.1z"/></svg>